<svg xmlns="http://www.w3.org/2000/svg" viewBox="0 0 100 100" width="100" height="100">

  <!-- Background -->
  <rect width="100" height="100" rx="18" fill="#f8f5ef"/>

  <!-- Leaf left -->
  <path d="M44 72 Q28 55 34 36 Q36 30 40 27 Q38 40 41 52 Q42 60 44 66 Z" fill="#7b3327" opacity="0.22"/>
  <path d="M44 72 Q28 55 34 36 Q36 30 40 27 Q38 40 41 52 Q42 60 44 66 Z" fill="none" stroke="#7b3327" stroke-width="0.8"/>

  <!-- Leaf right -->
  <path d="M56 72 Q72 55 66 36 Q64 30 60 27 Q62 40 59 52 Q58 60 56 66 Z" fill="#7b3327" opacity="0.22"/>
  <path d="M56 72 Q72 55 66 36 Q64 30 60 27 Q62 40 59 52 Q58 60 56 66 Z" fill="none" stroke="#7b3327" stroke-width="0.8"/>

  <!-- Center stem -->
  <line x1="50" y1="72" x2="50" y2="22" stroke="#7b3327" stroke-width="1" stroke-linecap="round"/>

  <!-- Small sprigs -->
  <path d="M50 36 Q42 30 40 22 Q47 25 50 33 Z" fill="#7b3327" opacity="0.5"/>
  <path d="M50 36 Q58 30 60 22 Q53 25 50 33 Z" fill="#7b3327" opacity="0.5"/>

  <!-- Letter A -->
  <text x="50" y="76" text-anchor="middle" font-family="Georgia, serif" font-size="52" font-weight="400" fill="#7b3327">A</text>

  <!-- Gold dot accent -->
  <circle cx="50" cy="22" r="2.5" fill="#d4a83e"/>

</svg>
